<?xml version="1.0" encoding="iso-8859-1"?>
<!-- Generator: Adobe Illustrator 21.0.0, SVG Export Plug-In . SVG Version: 6.00 Build 0)  -->
<svg version="1.1" id="Capa_1" xmlns="http://www.w3.org/2000/svg" xmlns:xlink="http://www.w3.org/1999/xlink" x="0px" y="0px"
	 viewBox="0 0 512 512" style="enable-background:new 0 0 512 512;" xml:space="preserve">
<g id="XMLID_212_">
	<g id="XMLID_213_">
		<path id="XMLID_214_" style="fill:#EBEEF2;" d="M380.802,42.336v192.267c0,5.145-4.167,9.312-9.312,9.312H59.516
			c-5.135,0-9.302-4.167-9.302-9.312V78.218c0-5.145,4.167-9.312,9.302-9.312h262.91l43.329-33.905
			C371.867,30.223,380.802,34.573,380.802,42.336z"/>
		<path id="XMLID_215_" style="fill:#D3D8DF;" d="M380.802,210.284v24.319c0,5.145-4.167,9.312-9.312,9.312H129.415V195.93
			c0-11.879,9.679-21.548,21.578-21.548c4.809,0,9.393,1.589,13.224,4.595l40.018,31.307H380.802z"/>
		<path id="XMLID_216_" style="fill:#74E2CD;" d="M238.104,121.853h-85.138c-4.267,0-7.726-3.459-7.726-7.726
			c0-4.268,3.459-7.726,7.726-7.726h85.138c4.267,0,7.726,3.459,7.726,7.726C245.83,118.394,242.371,121.853,238.104,121.853z"/>
		<path id="XMLID_217_" style="fill:#EB5777;" d="M128.76,121.853h-11.244c-4.267,0-7.726-3.459-7.726-7.726
			c0-4.268,3.459-7.726,7.726-7.726h11.244c4.267,0,7.726,3.459,7.726,7.726C136.486,118.394,133.027,121.853,128.76,121.853z"/>
		<path id="XMLID_218_" style="fill:#93A3AF;" d="M327.415,159.089H257.95c-4.267,0-7.726-3.459-7.726-7.726
			c0-4.268,3.459-7.726,7.726-7.726h69.466c4.268,0,7.726,3.459,7.726,7.726C335.142,155.63,331.683,159.089,327.415,159.089z"/>
		<path id="XMLID_219_" style="fill:#93A3AF;" d="M236.248,159.089H117.516c-4.267,0-7.726-3.459-7.726-7.726
			c0-4.268,3.459-7.726,7.726-7.726h118.733c4.267,0,7.726,3.459,7.726,7.726C243.975,155.63,240.516,159.089,236.248,159.089z"/>
	</g>
	<path id="XMLID_220_" style="fill:#A0D37D;" d="M472.229,231.811v156.385c0,5.145-4.167,9.312-9.302,9.312H150.952
		c-5.145,0-9.312-4.167-9.312-9.312V195.93c0-7.753,8.935-12.113,15.048-7.325l43.329,33.905h262.91
		C468.062,222.51,472.229,226.677,472.229,231.811z"/>
	<path id="XMLID_221_" style="fill:#84B75B;" d="M393.028,310.422v87.086H150.952c-5.145,0-9.312-4.167-9.312-9.312v-63.42h176.567
		l40.008-31.307c3.841-3.005,8.415-4.595,13.234-4.595C383.349,288.874,393.028,298.542,393.028,310.422z"/>
	<g id="XMLID_222_">
		<path id="XMLID_223_" style="fill:#EBEEF2;" d="M322.424,336.997H59.518c-5.141,0-9.309,4.168-9.309,9.309v156.385
			c0,5.141,4.168,9.309,9.309,9.309h311.973c5.141,0,9.309-4.168,9.309-9.309V310.423c0-7.759-8.935-12.112-15.045-7.331
			L322.424,336.997z"/>
		<path id="XMLID_224_" style="fill:#74E2CD;" d="M238.104,389.943h-85.138c-4.267,0-7.726-3.459-7.726-7.726
			s3.459-7.726,7.726-7.726h85.138c4.267,0,7.726,3.459,7.726,7.726S242.371,389.943,238.104,389.943z"/>
		<path id="XMLID_225_" style="fill:#EB5777;" d="M128.76,389.943h-11.244c-4.267,0-7.726-3.459-7.726-7.726
			s3.459-7.726,7.726-7.726h11.244c4.267,0,7.726,3.459,7.726,7.726S133.027,389.943,128.76,389.943z"/>
		<path id="XMLID_226_" style="fill:#93A3AF;" d="M327.415,427.177h-34.222c-4.268,0-7.726-3.459-7.726-7.726
			s3.459-7.726,7.726-7.726h34.222c4.268,0,7.726,3.459,7.726,7.726S331.683,427.177,327.415,427.177z"/>
		<path id="XMLID_227_" style="fill:#93A3AF;" d="M271.491,427.177H117.516c-4.267,0-7.726-3.459-7.726-7.726
			s3.459-7.726,7.726-7.726h153.975c4.268,0,7.726,3.459,7.726,7.726S275.759,427.177,271.491,427.177z"/>
		<path id="XMLID_228_" style="fill:#93A3AF;" d="M327.415,450.914h-91.167c-4.267,0-7.726-3.459-7.726-7.726
			s3.459-7.726,7.726-7.726h91.167c4.268,0,7.726,3.459,7.726,7.726S331.683,450.914,327.415,450.914z"/>
		<path id="XMLID_229_" style="fill:#93A3AF;" d="M215.381,450.914h-97.866c-4.267,0-7.726-3.459-7.726-7.726
			s3.459-7.726,7.726-7.726h97.866c4.267,0,7.726,3.459,7.726,7.726S219.648,450.914,215.381,450.914z"/>
		<path id="XMLID_230_" style="fill:#93A3AF;" d="M267.318,474.652H117.516c-4.267,0-7.726-3.459-7.726-7.726
			c0-4.268,3.459-7.726,7.726-7.726h149.802c4.268,0,7.726,3.459,7.726,7.726C275.044,471.193,271.586,474.652,267.318,474.652z"/>
	</g>
	<g id="XMLID_231_">
		<path id="XMLID_232_" style="fill:#EB5777;" d="M496.147,219.273c0,5.68-1.013,11.123-2.867,16.167
			c-6.585,17.924-23.809,30.718-44.018,30.718c-20.209,0-37.433-12.794-44.018-30.718c-1.854-5.044-2.867-10.487-2.867-16.167
			c0-25.9,20.996-46.885,46.885-46.885C475.151,172.388,496.147,193.373,496.147,219.273z"/>
		<path id="XMLID_233_" style="fill:#FAAA3C;" d="M493.28,235.44c-6.585,17.924-23.809,30.718-44.018,30.718
			c-20.209,0-37.433-12.794-44.018-30.718c6.585-17.935,23.809-30.718,44.018-30.718C469.471,204.722,486.695,217.505,493.28,235.44
			z"/>
		<g id="XMLID_234_">
			<circle style="fill:#F8C298;" cx="449.262" cy="185.052" r="25.868"/>
		</g>
	</g>
	<g id="XMLID_235_">
		<path id="XMLID_236_" style="fill:#74E2CD;" d="M109.623,328.314c0,5.68-1.013,11.123-2.867,16.167
			c-6.585,17.924-23.809,30.718-44.018,30.718s-37.433-12.794-44.018-30.718c-1.854-5.044-2.867-10.487-2.867-16.167
			c0-25.9,20.996-46.885,46.885-46.885C88.627,281.429,109.623,302.414,109.623,328.314z"/>
		<path id="XMLID_237_" style="fill:#EB5777;" d="M106.756,344.481c-6.585,17.924-23.809,30.718-44.018,30.718
			s-37.433-12.794-44.018-30.718c6.585-17.935,23.809-30.718,44.018-30.718S100.171,326.546,106.756,344.481z"/>
		<g id="XMLID_238_">
			<circle style="fill:#F8C298;" cx="62.738" cy="294.093" r="25.868"/>
		</g>
	</g>
	<g id="XMLID_239_">
		<path id="XMLID_240_" style="fill:#74E2CD;" d="M109.623,60.088c0,5.68-1.013,11.123-2.867,16.167
			c-6.585,17.924-23.809,30.718-44.018,30.718S25.305,94.18,18.72,76.256c-1.854-5.044-2.867-10.487-2.867-16.167
			c0-25.9,20.996-46.885,46.885-46.885C88.627,13.203,109.623,34.188,109.623,60.088z"/>
		<path id="XMLID_241_" style="fill:#EB5777;" d="M106.756,76.256c-6.585,17.924-23.809,30.718-44.018,30.718
			S25.305,94.18,18.72,76.256c6.585-17.935,23.809-30.718,44.018-30.718S100.171,58.321,106.756,76.256z"/>
		<g id="XMLID_242_">
			<circle style="fill:#F8C298;" cx="62.738" cy="25.868" r="25.868"/>
		</g>
	</g>
	<path id="XMLID_243_" style="fill:#FAAA3C;" d="M349.389,273.688H195.535c-4.267,0-7.726-3.459-7.726-7.726
		s3.459-7.726,7.726-7.726h153.855c4.268,0,7.726,3.459,7.726,7.726S353.657,273.688,349.389,273.688z"/>
	<path id="XMLID_244_" style="fill:#7B8C98;" d="M281.832,308.824h-86.297c-4.267,0-7.726-3.459-7.726-7.726
		s3.459-7.726,7.726-7.726h86.297c4.268,0,7.726,3.459,7.726,7.726S286.1,308.824,281.832,308.824z"/>
	<path id="XMLID_245_" style="fill:#7B8C98;" d="M322.221,308.824h-11.917c-4.268,0-7.726-3.459-7.726-7.726
		s3.459-7.726,7.726-7.726h11.917c4.268,0,7.726,3.459,7.726,7.726S326.489,308.824,322.221,308.824z"/>
</g>
<g>
</g>
<g>
</g>
<g>
</g>
<g>
</g>
<g>
</g>
<g>
</g>
<g>
</g>
<g>
</g>
<g>
</g>
<g>
</g>
<g>
</g>
<g>
</g>
<g>
</g>
<g>
</g>
<g>
</g>
</svg>
